<mxfile host="app.diagrams.net" agent="Mozilla/5.0 (Windows NT 10.0; Win64; x64) AppleWebKit/537.36 (KHTML, like Gecko) Chrome/138.0.0.0 Safari/537.36" version="28.0.5">
  <diagram name="Page-1" id="JSt_sUGz9QQo9mpz0LYZ">
    <mxGraphModel dx="1426" dy="785" grid="1" gridSize="10" guides="1" tooltips="1" connect="1" arrows="1" fold="1" page="1" pageScale="1" pageWidth="850" pageHeight="1100" math="0" shadow="0">
      <root>
        <mxCell id="0" />
        <mxCell id="1" parent="0" />
        <mxCell id="2" value="Cow" style="whiteSpace=wrap;strokeWidth=2;" parent="1" vertex="1">
          <mxGeometry x="322" y="8" width="90" height="54" as="geometry" />
        </mxCell>
        <mxCell id="3" value="Basketball" style="rounded=1;arcSize=20;strokeWidth=2" parent="1" vertex="1">
          <mxGeometry x="49" y="135" width="104" height="54" as="geometry" />
        </mxCell>
        <mxCell id="4" value="Basketball Court" style="whiteSpace=wrap;strokeWidth=2;" parent="1" vertex="1">
          <mxGeometry x="203" y="135" width="178" height="54" as="geometry" />
        </mxCell>
        <mxCell id="5" value="Hoop" style="whiteSpace=wrap;strokeWidth=2;" parent="1" vertex="1">
          <mxGeometry x="319" y="239" width="97" height="54" as="geometry" />
        </mxCell>
        <mxCell id="6" value="Defender" style="whiteSpace=wrap;strokeWidth=2;" parent="1" vertex="1">
          <mxGeometry x="578" y="239" width="126" height="54" as="geometry" />
        </mxCell>
        <mxCell id="7" value="Point" style="whiteSpace=wrap;strokeWidth=2;" parent="1" vertex="1">
          <mxGeometry x="123" y="493" width="96" height="54" as="geometry" />
        </mxCell>
        <mxCell id="8" value="Shot" style="whiteSpace=wrap;strokeWidth=2;" parent="1" vertex="1">
          <mxGeometry x="595" y="366" width="91" height="54" as="geometry" />
        </mxCell>
        <mxCell id="9" value="Missed Shot" style="whiteSpace=wrap;strokeWidth=2;" parent="1" vertex="1">
          <mxGeometry x="569" y="493" width="143" height="54" as="geometry" />
        </mxCell>
        <mxCell id="10" value="Pass to TeamMate" style="whiteSpace=wrap;strokeWidth=2;" parent="1" vertex="1">
          <mxGeometry x="8" y="239" width="186" height="54" as="geometry" />
        </mxCell>
        <mxCell id="11" value="Three-pointer" style="whiteSpace=wrap;strokeWidth=2;" parent="1" vertex="1">
          <mxGeometry x="21" y="366" width="160" height="54" as="geometry" />
        </mxCell>
        <mxCell id="12" value="Crowd Cheering" style="whiteSpace=wrap;strokeWidth=2;" parent="1" vertex="1">
          <mxGeometry x="353" y="366" width="173" height="54" as="geometry" />
        </mxCell>
        <mxCell id="13" value="Victory Dance" style="whiteSpace=wrap;strokeWidth=2;" parent="1" vertex="1">
          <mxGeometry x="360" y="493" width="159" height="54" as="geometry" />
        </mxCell>
        <mxCell id="14" value="Social Media" style="rounded=1;arcSize=20;strokeWidth=2" parent="1" vertex="1">
          <mxGeometry x="381" y="620" width="119" height="54" as="geometry" />
        </mxCell>
        <mxCell id="15" value="Memes" style="whiteSpace=wrap;strokeWidth=2;" parent="1" vertex="1">
          <mxGeometry x="386" y="724" width="109" height="54" as="geometry" />
        </mxCell>
        <mxCell id="16" value="dribbles" style="curved=1;startArrow=none;endArrow=block;exitX=0;exitY=0.7;entryX=0.5;entryY=0;" parent="1" source="2" target="3" edge="1">
          <mxGeometry relative="1" as="geometry">
            <Array as="points">
              <mxPoint x="101" y="99" />
            </Array>
          </mxGeometry>
        </mxCell>
        <mxCell id="17" value="" style="curved=1;startArrow=none;endArrow=block;exitX=0.15;exitY=1;entryX=0.5;entryY=0;" parent="1" source="2" target="4" edge="1">
          <mxGeometry relative="1" as="geometry">
            <Array as="points">
              <mxPoint x="292" y="99" />
            </Array>
          </mxGeometry>
        </mxCell>
        <mxCell id="18" value="" style="curved=1;startArrow=none;endArrow=block;exitX=0.25;exitY=1;entryX=0;entryY=0.21;" parent="1" source="4" target="5" edge="1">
          <mxGeometry relative="1" as="geometry">
            <Array as="points">
              <mxPoint x="207" y="214" />
            </Array>
          </mxGeometry>
        </mxCell>
        <mxCell id="19" value="" style="curved=1;startArrow=none;endArrow=block;exitX=1;exitY=0.99;entryX=0;entryY=0.15;" parent="1" source="4" target="6" edge="1">
          <mxGeometry relative="1" as="geometry">
            <Array as="points">
              <mxPoint x="466" y="214" />
            </Array>
          </mxGeometry>
        </mxCell>
        <mxCell id="20" value="scores" style="curved=1;startArrow=none;endArrow=block;exitX=0.05;exitY=1;entryX=0.92;entryY=0;" parent="1" source="5" target="7" edge="1">
          <mxGeometry relative="1" as="geometry">
            <Array as="points">
              <mxPoint x="267" y="330" />
              <mxPoint x="267" y="457" />
            </Array>
          </mxGeometry>
        </mxCell>
        <mxCell id="21" value="blocks" style="curved=1;startArrow=none;endArrow=block;exitX=0.5;exitY=1;entryX=0.5;entryY=0;" parent="1" source="6" target="8" edge="1">
          <mxGeometry relative="1" as="geometry">
            <Array as="points" />
          </mxGeometry>
        </mxCell>
        <mxCell id="22" value="" style="curved=1;startArrow=none;endArrow=block;exitX=0.5;exitY=1;entryX=0.5;entryY=0;" parent="1" source="8" target="9" edge="1">
          <mxGeometry relative="1" as="geometry">
            <Array as="points" />
          </mxGeometry>
        </mxCell>
        <mxCell id="23" value="" style="curved=1;startArrow=none;endArrow=block;exitX=0.5;exitY=1;entryX=0.5;entryY=0;" parent="1" source="3" target="10" edge="1">
          <mxGeometry relative="1" as="geometry">
            <Array as="points" />
          </mxGeometry>
        </mxCell>
        <mxCell id="24" value="" style="curved=1;startArrow=none;endArrow=block;exitX=0.5;exitY=1;entryX=0.5;entryY=0;" parent="1" source="10" target="11" edge="1">
          <mxGeometry relative="1" as="geometry">
            <Array as="points" />
          </mxGeometry>
        </mxCell>
        <mxCell id="25" value="makes" style="curved=1;startArrow=none;endArrow=block;exitX=0.5;exitY=1;entryX=0.19;entryY=0;" parent="1" source="11" target="7" edge="1">
          <mxGeometry relative="1" as="geometry">
            <Array as="points">
              <mxPoint x="101" y="457" />
            </Array>
          </mxGeometry>
        </mxCell>
        <mxCell id="26" value="fouls" style="curved=1;startArrow=none;endArrow=block;exitX=0.67;exitY=0;entryX=1;entryY=0.67;" parent="1" source="6" target="2" edge="1">
          <mxGeometry relative="1" as="geometry">
            <Array as="points">
              <mxPoint x="683" y="214" />
              <mxPoint x="683" y="99" />
            </Array>
          </mxGeometry>
        </mxCell>
        <mxCell id="27" value="shoots" style="curved=1;startArrow=none;endArrow=block;exitX=1;exitY=0.79;entryX=0.99;entryY=0.25;" parent="1" source="2" target="5" edge="1">
          <mxGeometry relative="1" as="geometry">
            <Array as="points">
              <mxPoint x="550" y="99" />
              <mxPoint x="550" y="214" />
            </Array>
          </mxGeometry>
        </mxCell>
        <mxCell id="28" value="celebrates" style="curved=1;startArrow=none;endArrow=block;exitX=0.81;exitY=1;entryX=0.5;entryY=0;" parent="1" source="5" target="12" edge="1">
          <mxGeometry relative="1" as="geometry">
            <Array as="points">
              <mxPoint x="440" y="330" />
            </Array>
          </mxGeometry>
        </mxCell>
        <mxCell id="29" value="" style="curved=1;startArrow=none;endArrow=block;exitX=0.5;exitY=1;entryX=0.5;entryY=0;" parent="1" source="12" target="13" edge="1">
          <mxGeometry relative="1" as="geometry">
            <Array as="points" />
          </mxGeometry>
        </mxCell>
        <mxCell id="30" value="share" style="curved=1;startArrow=none;endArrow=block;exitX=0.5;exitY=1;entryX=0.5;entryY=0;" parent="1" source="13" target="14" edge="1">
          <mxGeometry relative="1" as="geometry">
            <Array as="points" />
          </mxGeometry>
        </mxCell>
        <mxCell id="31" value="" style="curved=1;startArrow=none;endArrow=block;exitX=0.5;exitY=1;entryX=0.49;entryY=0;" parent="1" source="14" target="15" edge="1">
          <mxGeometry relative="1" as="geometry">
            <Array as="points" />
          </mxGeometry>
        </mxCell>
      </root>
    </mxGraphModel>
  </diagram>
</mxfile>
